<!-- icon666.com - MILLIONS vector ICONS FREE --><svg id="Layer_1" viewBox="0 0 32 32" xmlns="http://www.w3.org/2000/svg" data-name="Layer 1"><circle cx="16" cy="16" fill="#47c8ff" r="16"/><path d="m31.9 17.76a16 16 0 0 1 -14.5 14.18l-7.22-7.21.4-3.83 5.26 5.26 5.66-2.66v-4l-5-4-5-1-1-5 4-4 6.28 1.13z" fill="#2d8cda"/><path d="m16 27c-3.99 0-7-2.272-7-5.286a1 1 0 0 1 2 0c0 1.843 2.2 3.286 5 3.286 2.757 0 5-1.59 5-3.545 0-1.759-1.471-3.341-3.747-4.03l-2.982-.943a6.44 6.44 0 0 1 -4.771-5.937c0-3.057 2.916-5.545 6.5-5.545 3.706 0 6.5 2.272 6.5 5.286a1 1 0 1 1 -2 0c0-1.873-1.935-3.286-4.5-3.286-2.481 0-4.5 1.59-4.5 3.545a4.484 4.484 0 0 0 3.4 4.038l2.935.928c3.139.95 5.167 3.283 5.167 5.944-.002 3.057-3.143 5.545-7.002 5.545z" fill="#fff"/></svg>