<svg width="22" height="18" viewBox="0 0 22 18" fill="none" xmlns="http://www.w3.org/2000/svg">
<g clip-path="url(#clip0)">
<path d="M6 0.5C5 0.5 5 1 5 2.0625V16.9375C5 17.5219 5.45 18 6 18H16C16.55 18 17 17.5219 17 16.9375V5.25L13 0.5H6Z" fill="white"/>
<path fill-rule="evenodd" clip-rule="evenodd" d="M5.83293 18.0339C4.98514 18.0339 4.29346 17.3422 4.29346 16.4944V1.57337C4.29346 0.725578 4.98514 0.0338974 5.83293 0.0338974H13.4897L18.0303 4.57453V16.4944C18.0303 17.3422 17.3386 18.0339 16.4908 18.0339H5.83293ZM5.83293 17.0865C5.50836 17.0865 5.24083 16.819 5.24083 16.4944V1.57337C5.24083 1.2488 5.50836 0.981266 5.83293 0.981266H12.6343V4.10944C12.6343 4.76978 13.1881 5.31006 13.8649 5.31006H17.0829V16.4944C17.0829 16.819 16.8154 17.0865 16.4908 17.0865H5.83293Z" fill="#AFB6BB"/>
<path d="M22 7H11V15H22V7Z" fill="#24B949"/>
<path d="M13.5831 10.3957L14.2701 9.05348H15.1384L14.0713 10.984L15.1661 12.9465H14.2878L13.5831 11.5829L12.8784 12.9465H12L13.0948 10.984L12.0277 9.05348H12.896L13.5831 10.3957Z" fill="white"/>
<path d="M16.3037 12.3021H17.9069V12.9465H15.5487V9.05348H16.3037V12.3021Z" fill="white"/>
<path d="M20.2424 11.9251C20.2424 11.7736 20.1921 11.6578 20.0914 11.5775C19.9908 11.4955 19.8096 11.41 19.5478 11.3209C19.2861 11.2299 19.0789 11.1408 18.9262 11.0535C18.5101 10.8146 18.302 10.4929 18.302 10.0882C18.302 9.8779 18.3574 9.69073 18.4681 9.52674C18.5805 9.36096 18.7408 9.23173 18.9488 9.13904C19.1586 9.04635 19.3935 9 19.6535 9C19.9153 9 20.1485 9.0508 20.3532 9.15241C20.5579 9.25223 20.7164 9.39394 20.8289 9.57754C20.943 9.76114 21 9.9697 21 10.2032H20.245C20.245 10.025 20.1921 9.88681 20.0864 9.78877C19.9807 9.68895 19.8322 9.63904 19.6409 9.63904C19.4564 9.63904 19.3129 9.68093 19.2106 9.76471C19.1082 9.8467 19.057 9.95544 19.057 10.0909C19.057 10.2175 19.1166 10.3235 19.2357 10.4091C19.3565 10.4947 19.5336 10.5749 19.7668 10.6497C20.1963 10.787 20.5092 10.9572 20.7055 11.1604C20.9018 11.3636 21 11.6168 21 11.9198C21 12.2567 20.88 12.5214 20.6401 12.7139C20.4002 12.9046 20.0772 13 19.6711 13C19.3893 13 19.1326 12.9456 18.901 12.8369C18.6695 12.7264 18.4924 12.5758 18.37 12.385C18.2492 12.1943 18.1888 11.9733 18.1888 11.7219H18.9463C18.9463 12.1515 19.1879 12.3663 19.6711 12.3663C19.8507 12.3663 19.9908 12.328 20.0914 12.2513C20.1921 12.1729 20.2424 12.0642 20.2424 11.9251Z" fill="white"/>
<path d="M11 7H0V15H11V7Z" fill="#CE2C1C"/>
<path d="M1.74958 11.5907V13H1V9H2.41921C2.69239 9 2.93226 9.05495 3.13881 9.16484C3.34703 9.27473 3.50694 9.43132 3.61855 9.63462C3.73015 9.83608 3.78595 10.0659 3.78595 10.3242C3.78595 10.7161 3.66352 11.0256 3.41866 11.2527C3.17546 11.478 2.83815 11.5907 2.40672 11.5907H1.74958ZM1.74958 10.9231H2.41921C2.61743 10.9231 2.76818 10.8718 2.87146 10.7692C2.9764 10.6667 3.02887 10.5201 3.02887 10.3297C3.02887 10.1337 2.9764 9.97527 2.87146 9.8544C2.76652 9.73352 2.6216 9.67125 2.4367 9.66758H1.74958V10.9231Z" fill="white"/>
<path d="M4.3031 13V9H5.42248C5.74231 9 6.02798 9.07967 6.27951 9.23901C6.5327 9.39652 6.73009 9.62179 6.87168 9.91484C7.01327 10.206 7.08406 10.5375 7.08406 10.9093V11.0934C7.08406 11.4652 7.0141 11.7958 6.87418 12.0852C6.73592 12.3745 6.5402 12.5989 6.287 12.7582C6.03381 12.9176 5.74814 12.9982 5.42998 13H4.3031ZM5.05269 9.66758V12.3379H5.41499C5.70816 12.3379 5.9322 12.2326 6.08711 12.022C6.24203 11.8114 6.32115 11.5101 6.32448 11.1181V10.9066C6.32448 10.5 6.24786 10.1923 6.09461 9.98352C5.94136 9.77289 5.71732 9.66758 5.42248 9.66758H5.05269Z" fill="white"/>
<path d="M9.82013 11.3654H8.38093V13H7.63135V9H10V9.66758H8.38093V10.7005H9.82013V11.3654Z" fill="white"/>
</g>
<defs>
<clipPath id="clip0">
<rect width="22" height="18" fill="white"/>
</clipPath>
</defs>
</svg>
