<?xml version="1.0" encoding="UTF-8" standalone="no"?>
<svg
   xmlns:dc="http://purl.org/dc/elements/1.1/"
   xmlns:cc="http://creativecommons.org/ns#"
   xmlns:rdf="http://www.w3.org/1999/02/22-rdf-syntax-ns#"
   xmlns:svg="http://www.w3.org/2000/svg"
   xmlns="http://www.w3.org/2000/svg"
   viewBox="0 0 18 18"
   height="18"
   width="18"
   xml:space="preserve"
   version="1.1"
   id="svg2"><metadata
     id="metadata8"><rdf:RDF><cc:Work
         rdf:about=""><dc:format>image/svg+xml</dc:format><dc:type
           rdf:resource="http://purl.org/dc/dcmitype/StillImage" /><dc:title></dc:title></cc:Work></rdf:RDF></metadata><defs
     id="defs6" /><g
     transform="matrix(1.25,0,0,-1.25,0,18)"
     id="g10"><path
       d="m 3.0663693,13.993934 c -0.4689473,0 -0.8526315,-0.383685 -0.8526315,-0.852632 l 0,-11.9368417 c 0,-0.46894736 0.3836842,-0.85263157 0.8526315,-0.85263157 l 8.5263167,0 c 0.468947,0 0.852631,0.38368421 0.852631,0.85263157 l 0,9.3789467 -3.4105266,3.410527 -5.9684211,0"
       style="fill:#ffffff;fill-opacity:1;fill-rule:nonzero;stroke:#afb6bb;stroke-width:0.75789475;stroke-miterlimit:4;stroke-dasharray:none;stroke-opacity:1"
       id="path14" /><path
       d="m 9.4919216,10.151952 2.9533954,0 -3.9378605,3.841982 0,-2.881486 c 0,-0.528272 0.4430093,-0.960496 0.9844651,-0.960496"
       style="fill:#afb6bb;fill-opacity:1;fill-rule:nonzero;stroke:none"
       id="path16" /><rect
       transform="scale(1,-1)"
       y="-8.7250643"
       x="0.3595458"
       height="6.4000001"
       width="13.6"
       id="rect4164"
       style="fill:#24b949;fill-opacity:1;stroke:none;stroke-width:0.80000001;stroke-miterlimit:4;stroke-dasharray:none;stroke-opacity:1" /><g
       id="text4166"
       style="font-style:normal;font-weight:normal;font-size:4px;line-height:125%;font-family:sans-serif;letter-spacing:0px;word-spacing:0px;fill:#000000;fill-opacity:1;stroke:none;stroke-width:1px;stroke-linecap:butt;stroke-linejoin:miter;stroke-opacity:1"
       transform="scale(1,-1)"><path
         id="path4374"
         style="font-style:normal;font-variant:normal;font-weight:bold;font-stretch:normal;font-size:8px;line-height:125%;font-family:'Ubuntu Mono';-inkscape-font-specification:'Ubuntu Mono, Bold';text-align:start;writing-mode:lr-tb;text-anchor:start;fill:#ffffff"
         d="m 4.1183956,-3.0441544 q -0.152,-0.408 -0.376,-0.904 -0.216,-0.496 -0.456,-0.992 -0.232,0.472 -0.464,0.984 -0.232,0.504 -0.4,0.912 l -1.064,0 q 0.08,-0.216 0.232,-0.52 0.16,-0.304 0.344,-0.656 0.192,-0.352 0.4,-0.72 0.208,-0.376 0.4,-0.72 l -1.296,-2.336 1.064,0 0.784,1.584 0.824,-1.584 0.992,0 -1.264,2.312 q 0.216,0.344 0.424,0.72 0.208,0.376 0.384,0.736 0.184,0.352 0.32,0.664 0.136,0.304 0.216,0.52 l -1.064,0 z" /><path
         id="path4376"
         style="font-style:normal;font-variant:normal;font-weight:bold;font-stretch:normal;font-size:8px;line-height:125%;font-family:'Ubuntu Mono';-inkscape-font-specification:'Ubuntu Mono, Bold';text-align:start;writing-mode:lr-tb;text-anchor:start;fill:#ffffff"
         d="m 8.9503956,-3.0441544 -3.112,0 0,-4.952 0.992,0 0,4.136 2.12,0 0,0.816 z" /><path
         id="path4378"
         style="font-style:normal;font-variant:normal;font-weight:bold;font-stretch:normal;font-size:8px;line-height:125%;font-family:'Ubuntu Mono';-inkscape-font-specification:'Ubuntu Mono, Bold';text-align:start;writing-mode:lr-tb;text-anchor:start;fill:#ffffff"
         d="m 11.126396,-3.7641544 q 0.248,0 0.408,-0.048 0.168,-0.056 0.264,-0.144 0.096,-0.096 0.128,-0.208 0.04,-0.12 0.04,-0.24 0,-0.152 -0.088,-0.272 -0.088,-0.12 -0.224,-0.208 -0.136,-0.096 -0.304,-0.168 -0.168,-0.08 -0.336,-0.144 -0.224,-0.08 -0.464,-0.184 -0.24,-0.104 -0.44,-0.264 -0.1920004,-0.16 -0.3200004,-0.392 -0.128,-0.24 -0.128,-0.592 0,-0.696 0.4480004,-1.088 0.456,-0.392 1.248,-0.392 0.456,0 0.792,0.104 0.344,0.104 0.576,0.232 l -0.288,0.76 q -0.2,-0.112 -0.448,-0.192 -0.24,-0.08 -0.56,-0.08 -0.784,0 -0.784,0.568 0,0.144 0.08,0.256 0.08,0.104 0.2,0.192 0.128,0.08 0.28,0.144 0.16,0.064 0.312,0.12 0.232,0.088 0.48,0.2 0.256,0.104 0.464,0.288 0.216,0.176 0.352,0.448 0.136,0.264 0.136,0.672 0,0.696 -0.456,1.08 -0.448,0.376 -1.368,0.376 -0.616,0 -0.984,-0.128 -0.3680004,-0.136 -0.5520004,-0.248 l 0.288,-0.8 q 0.2160004,0.128 0.5120004,0.24 0.304,0.112 0.736,0.112 z" /></g></g></svg>